Coordinates
version=1
nRows=9
nColumns=24
inDegrees=yes

Units are S.I. units (second, meters, Newtons, ...)
Angles are in degrees.

endheader
time	pelvis_tilt	pelvis_list	pelvis_rotation	pelvis_tx	pelvis_ty	pelvis_tz	hip_flexion_r	hip_adduction_r	hip_rotation_r	knee_angle_r	ankle_angle_r	subtalar_angle_r	mtp_angle_r	hip_flexion_l	hip_adduction_l	hip_rotation_l	knee_angle_l	ankle_angle_l	subtalar_angle_l	mtp_angle_l	lumbar_extension	lumbar_bending	lumbar_rotation
      0.68316667	      1.62256085	     -7.31985760	      3.62096527	     -0.47277698	      1.00811247	      0.31132675	      8.13141757	     13.30254234	      0.82103985	    -13.35052668	     -0.85804623	    -20.51471648	     -2.51123744	     20.29831790	     -7.32909425	      2.22665366	    -70.57858389	     -6.20582938	     -9.81384677	      4.83283158	     -5.79606203	     10.89859557	      1.19233166
      0.68733333	      1.65731313	     -7.17763357	      3.55631988	     -0.46750308	      1.00906981	      0.31145281	      7.51867290	     13.18337326	      0.97040225	    -12.95480465	     -0.77653139	    -20.43277641	     -2.53434899	     20.82242293	     -7.09937710	      2.26111955	    -70.25064081	     -5.65338132	    -10.16860961	      4.77985097	     -5.88214262	     10.73469259	      1.30528632
      0.69150000	      1.72895843	     -7.03873806	      3.48433659	     -0.46219773	      1.01006520	      0.31157519	      6.85103667	     13.06833026	      1.13530176	    -12.53222803	     -0.69158817	    -20.34391681	     -2.57782178	     21.27443752	     -6.88553313	      2.27378361	    -69.84153219	     -5.13835386	    -10.49514413	      4.68306310	     -5.99581113	     10.58146849	      1.48553875
      0.69566667	      1.71549658	     -6.91509368	      3.38728846	     -0.45692838	      1.01085764	      0.31172376	      6.31023821	     12.96133773	      1.28475783	    -12.17525646	     -0.59800587	    -20.26826384	     -2.59685439	     21.80994955	     -6.69148192	      2.27155385	    -69.39602229	     -4.56042236	    -10.78433507	      4.64196649	     -6.01543378	     10.43976660	      1.56451118
      0.69983333	      1.76203506	     -6.76429104	      3.28603463	     -0.45164789	      1.01173528	      0.31187028	      5.68157702	     12.82875653	      1.47767396	    -11.77763169	     -0.50753940	    -20.17036379	     -2.64574240	     22.23932058	     -6.47865522	      2.24427114	    -68.85251892	     -4.06828086	    -11.06890485	      4.53597064	     -6.12070948	     10.25836953	      1.77222913
      0.70400000	      1.74358271	     -6.64001737	      3.16660867	     -0.44638712	      1.01245042	      0.31203382	      5.15288258	     12.71746405	      1.65153160	    -11.43487577	     -0.41572299	    -20.08926933	     -2.66977489	     22.72929126	     -6.29984623	      2.20769817	    -68.27127622	     -3.51290177	    -11.31285624	      4.48541107	     -6.14335768	     10.11116237	      1.86378748
      0.70816667	      1.77380011	     -6.48776459	      3.02391453	     -0.44109886	      1.01321338	      0.31220604	      4.55844906	     12.57626118	      1.85442758	    -11.07521668	     -0.32205336	    -19.99123503	     -2.70643594	     23.11887122	     -6.10691923	      2.13060434	    -67.59593126	     -3.00793399	    -11.53642631	      4.40743158	     -6.21882300	      9.95042191	      2.03451196
      0.71233333	      1.76975753	     -6.35005198	      2.88348036	     -0.43582720	      1.01387082	      0.31237442	      4.01237538	     12.44554570	      2.04832976	    -10.73145440	     -0.22308610	    -19.89942756	     -2.74159459	     23.53454044	     -5.93028906	      2.05860227	    -66.87212850	     -2.51802046	    -11.73574901	      4.33276767	     -6.26230937	      9.78911266	      2.19662538
      0.71650000	      1.79177050	     -6.22550446	      2.74639849	     -0.43054339	      1.01450080	      0.31255311	      3.42788719	     12.32845930	      2.24851663	    -10.36286510	     -0.11000384	    -19.80479696	     -2.80970431	     23.90216311	     -5.77963706	      1.98126203	    -66.09021424	     -2.07541055	    -11.89612380	      4.18905890	     -6.33594452	      9.62319395	      2.46408476
